<svg xmlns="http://www.w3.org/2000/svg" width="15.723" height="18.677" viewBox="0 0 15.723 18.677">
  <path id="copy" d="M9.886,18.677H2.918A2.922,2.922,0,0,1,0,15.759V5.873A2.922,2.922,0,0,1,2.918,2.955H9.886A2.922,2.922,0,0,1,12.8,5.873v9.886A2.922,2.922,0,0,1,9.886,18.677ZM2.918,4.414A1.461,1.461,0,0,0,1.459,5.873v9.886a1.461,1.461,0,0,0,1.459,1.459H9.886a1.461,1.461,0,0,0,1.459-1.459V5.873A1.461,1.461,0,0,0,9.886,4.414Zm12.8,9.521V2.918A2.922,2.922,0,0,0,12.8,0h-8.1a.73.73,0,0,0,0,1.459h8.1a1.461,1.461,0,0,1,1.459,1.459V13.935a.73.73,0,1,0,1.459,0Zm0,0" fill="#202125"/>
</svg>
