<svg xmlns="http://www.w3.org/2000/svg" width="17.418" height="13.232" viewBox="0 0 17.418 13.232">
  <path id="forward" d="M16.824,4.934,12.88.99A1.419,1.419,0,0,0,11.9.5c-.447,0-.969.34-.969,1.3V3.059A11.53,11.53,0,0,0,0,13.159a.51.51,0,0,0,.918.363A10.006,10.006,0,0,1,10.93,9.6V10.95c0,.958.522,1.3.969,1.3h0a1.419,1.419,0,0,0,.981-.49l3.944-3.944a2.038,2.038,0,0,0,0-2.879ZM16.1,7.091l-3.944,3.944a1.081,1.081,0,0,1-.185.153,1.08,1.08,0,0,1-.023-.239V9.189a.51.51,0,0,0-.393-.5,11,11,0,0,0-10.139,2.73A10.515,10.515,0,0,1,11.441,4.068a.51.51,0,0,0,.51-.51V1.8a1.082,1.082,0,0,1,.023-.239,1.088,1.088,0,0,1,.185.153L16.1,5.656a1.016,1.016,0,0,1,0,1.436Zm0,0" transform="translate(-0.001 -0.5)" fill="#fff"/>
</svg>
