<svg xmlns="http://www.w3.org/2000/svg" xmlns:xlink="http://www.w3.org/1999/xlink" width="58" height="58" viewBox="0 0 58 58">
  <defs>
    <filter id="Elipse_3" x="0" y="0" width="58" height="58" filterUnits="userSpaceOnUse">
      <feOffset dy="6" input="SourceAlpha"/>
      <feGaussianBlur stdDeviation="3" result="blur"/>
      <feFlood flood-opacity="0.161"/>
      <feComposite operator="in" in2="blur"/>
      <feComposite in="SourceGraphic"/>
    </filter>
  </defs>
  <g id="Grupo_95" data-name="Grupo 95" transform="translate(-227 -589)">
    <g transform="matrix(1, 0, 0, 1, 227, 589)" filter="url(#Elipse_3)">
      <circle id="Elipse_3-2" data-name="Elipse 3" cx="20" cy="20" r="20" transform="translate(9 3)" fill="#313131"/>
    </g>
    <g id="mic" transform="translate(153.434 601.57)">
      <g id="Grupo_2" data-name="Grupo 2" transform="translate(98.723)">
        <g id="Grupo_1" data-name="Grupo 1" transform="translate(0)">
          <path id="Caminho_67" data-name="Caminho 67" d="M169.877,0a3.574,3.574,0,0,0-3.57,3.57v7.016a3.57,3.57,0,0,0,7.139.025V3.57A3.574,3.574,0,0,0,169.877,0Zm2.082,10.609a2.082,2.082,0,0,1-4.164-.025V3.57a2.082,2.082,0,1,1,4.164,0Z" transform="translate(-166.307)" fill="#fff"/>
        </g>
      </g>
      <g id="Grupo_4" data-name="Grupo 4" transform="translate(101.549 16.286)">
        <g id="Grupo_3" data-name="Grupo 3" transform="translate(0)">
          <rect id="Retângulo_153" data-name="Retângulo 153" width="1.487" height="3.347" fill="#fff"/>
        </g>
      </g>
      <g id="Grupo_6" data-name="Grupo 6" transform="translate(99.591 18.889)">
        <g id="Grupo_5" data-name="Grupo 5" transform="translate(0)">
          <path id="Caminho_68" data-name="Caminho 68" d="M192.767,474.628h-3.917a.744.744,0,0,0,0,1.487h3.917a.744.744,0,0,0,0-1.487Z" transform="translate(-188.107 -474.628)" fill="#fff"/>
        </g>
      </g>
      <g id="Grupo_8" data-name="Grupo 8" transform="translate(95.922 9.345)">
        <g id="Grupo_7" data-name="Grupo 7" transform="translate(0)">
          <path id="Caminho_69" data-name="Caminho 69" d="M107.92,234.822a.744.744,0,0,0-.744.744v.595a4.883,4.883,0,1,1-9.767,0v-.595a.744.744,0,0,0-1.487,0v.595a6.371,6.371,0,0,0,12.742,0v-.595A.744.744,0,0,0,107.92,234.822Z" transform="translate(-95.922 -234.822)" fill="#fff"/>
        </g>
      </g>
    </g>
  </g>
</svg>
