<svg id="Grupo_83" data-name="Grupo 83" xmlns="http://www.w3.org/2000/svg" width="16.806" height="16.806" viewBox="0 0 16.806 16.806">
  <g id="Grupo_43" data-name="Grupo 43">
    <path id="Caminho_35" data-name="Caminho 35" d="M336.953,492.69a.628.628,0,0,0-.929.845L339.212,497a.631.631,0,0,0,.443.211h.021a.575.575,0,0,0,.443-.19l8.065-8.044a.627.627,0,0,0-.887-.887l-7.6,7.58Z" transform="translate(-331.865 -485.786)" fill="#fff"/>
    <path id="Caminho_36" data-name="Caminho 36" d="M316.355,476.822a.622.622,0,0,0-.633.633,7.136,7.136,0,1,1-7.136-7.136.633.633,0,1,0,0-1.267,8.4,8.4,0,1,0,8.4,8.4A.622.622,0,0,0,316.355,476.822Z" transform="translate(-300.183 -469.053)" fill="#fff"/>
  </g>
</svg>
