<svg xmlns="http://www.w3.org/2000/svg" xmlns:xlink="http://www.w3.org/1999/xlink" width="58" height="58" viewBox="0 0 58 58">
  <defs>
    <filter id="Elipse_2" x="0" y="0" width="58" height="58" filterUnits="userSpaceOnUse">
      <feOffset dy="6" input="SourceAlpha"/>
      <feGaussianBlur stdDeviation="3" result="blur"/>
      <feFlood flood-opacity="0.161"/>
      <feComposite operator="in" in2="blur"/>
      <feComposite in="SourceGraphic"/>
    </filter>
  </defs>
  <g id="Grupo_94" data-name="Grupo 94" transform="translate(-165 -589)">
    <g transform="matrix(1, 0, 0, 1, 165, 589)" filter="url(#Elipse_2)">
      <circle id="Elipse_2-2" data-name="Elipse 2" cx="20" cy="20" r="20" transform="translate(9 3)" fill="#313131"/>
    </g>
    <g id="Grupo_9" data-name="Grupo 9" transform="translate(184.38 520.912)">
      <path id="Caminho_70" data-name="Caminho 70" d="M19.089,86.823a.694.694,0,0,0-.675-.031l-4.544,2.272V87.413a2.08,2.08,0,0,0-2.08-2.08H2.08A2.08,2.08,0,0,0,0,87.413v8.322a2.08,2.08,0,0,0,2.08,2.08h9.709a2.08,2.08,0,0,0,2.08-2.08V94.083l4.544,2.276a.694.694,0,0,0,1-.624V87.413A.693.693,0,0,0,19.089,86.823Zm-6.606,8.912a.693.693,0,0,1-.693.693H2.08a.693.693,0,0,1-.693-.693V87.413a.693.693,0,0,1,.693-.693h9.709a.693.693,0,0,1,.693.693v8.322Zm5.548-1.122-4.161-2.08V90.616l4.161-2.08Z" transform="translate(0 0)" fill="#fff"/>
    </g>
  </g>
</svg>
