<svg width="26" height="20" viewBox="0 0 26 20" fill="none" xmlns="http://www.w3.org/2000/svg">
<path d="M22.75 1.875C23.181 1.875 23.5943 2.0462 23.899 2.35095C24.2038 2.6557 24.375 3.06902 24.375 3.5V16.5C24.375 16.931 24.2038 17.3443 23.899 17.649C23.5943 17.9538 23.181 18.125 22.75 18.125H3.25C2.81902 18.125 2.4057 17.9538 2.10095 17.649C1.7962 17.3443 1.625 16.931 1.625 16.5V3.5C1.625 3.06902 1.7962 2.6557 2.10095 2.35095C2.4057 2.0462 2.81902 1.875 3.25 1.875H22.75ZM3.25 0.25C2.38805 0.25 1.5614 0.59241 0.951903 1.2019C0.34241 1.8114 0 2.63805 0 3.5L0 16.5C0 17.362 0.34241 18.1886 0.951903 18.7981C1.5614 19.4076 2.38805 19.75 3.25 19.75H22.75C23.612 19.75 24.4386 19.4076 25.0481 18.7981C25.6576 18.1886 26 17.362 26 16.5V3.5C26 2.63805 25.6576 1.8114 25.0481 1.2019C24.4386 0.59241 23.612 0.25 22.75 0.25H3.25Z" fill="white"/>
<path d="M3.25 5.9375C3.25 5.72201 3.3356 5.51535 3.48798 5.36298C3.64035 5.2106 3.84701 5.125 4.0625 5.125H7.3125C7.52799 5.125 7.73465 5.2106 7.88702 5.36298C8.0394 5.51535 8.125 5.72201 8.125 5.9375V7.5625C8.125 7.77799 8.0394 7.98465 7.88702 8.13702C7.73465 8.2894 7.52799 8.375 7.3125 8.375H4.0625C3.84701 8.375 3.64035 8.2894 3.48798 8.13702C3.3356 7.98465 3.25 7.77799 3.25 7.5625V5.9375ZM3.25 10.8125C3.25 10.597 3.3356 10.3903 3.48798 10.238C3.64035 10.0856 3.84701 10 4.0625 10H12.1875C12.403 10 12.6097 10.0856 12.762 10.238C12.9144 10.3903 13 10.597 13 10.8125C13 11.028 12.9144 11.2347 12.762 11.387C12.6097 11.5394 12.403 11.625 12.1875 11.625H4.0625C3.84701 11.625 3.64035 11.5394 3.48798 11.387C3.3356 11.2347 3.25 11.028 3.25 10.8125ZM3.25 14.0625C3.25 13.847 3.3356 13.6403 3.48798 13.488C3.64035 13.3356 3.84701 13.25 4.0625 13.25H5.6875C5.90299 13.25 6.10965 13.3356 6.26202 13.488C6.4144 13.6403 6.5 13.847 6.5 14.0625C6.5 14.278 6.4144 14.4847 6.26202 14.637C6.10965 14.7894 5.90299 14.875 5.6875 14.875H4.0625C3.84701 14.875 3.64035 14.7894 3.48798 14.637C3.3356 14.4847 3.25 14.278 3.25 14.0625ZM8.125 14.0625C8.125 13.847 8.2106 13.6403 8.36298 13.488C8.51535 13.3356 8.72201 13.25 8.9375 13.25H10.5625C10.778 13.25 10.9847 13.3356 11.137 13.488C11.2894 13.6403 11.375 13.847 11.375 14.0625C11.375 14.278 11.2894 14.4847 11.137 14.637C10.9847 14.7894 10.778 14.875 10.5625 14.875H8.9375C8.72201 14.875 8.51535 14.7894 8.36298 14.637C8.2106 14.4847 8.125 14.278 8.125 14.0625ZM13 14.0625C13 13.847 13.0856 13.6403 13.238 13.488C13.3903 13.3356 13.597 13.25 13.8125 13.25H15.4375C15.653 13.25 15.8597 13.3356 16.012 13.488C16.1644 13.6403 16.25 13.847 16.25 14.0625C16.25 14.278 16.1644 14.4847 16.012 14.637C15.8597 14.7894 15.653 14.875 15.4375 14.875H13.8125C13.597 14.875 13.3903 14.7894 13.238 14.637C13.0856 14.4847 13 14.278 13 14.0625ZM17.875 14.0625C17.875 13.847 17.9606 13.6403 18.113 13.488C18.2653 13.3356 18.472 13.25 18.6875 13.25H20.3125C20.528 13.25 20.7347 13.3356 20.887 13.488C21.0394 13.6403 21.125 13.847 21.125 14.0625C21.125 14.278 21.0394 14.4847 20.887 14.637C20.7347 14.7894 20.528 14.875 20.3125 14.875H18.6875C18.472 14.875 18.2653 14.7894 18.113 14.637C17.9606 14.4847 17.875 14.278 17.875 14.0625Z" fill="white"/>
</svg>
